PathFileType	4	(X/Y/Z)	c:/Users/goper/Files/vsCode/490R/osim_files/A06/A06_SSWS_04.trc
DataRate	CameraRate	NumFrames	NumMarkers	Units                	OrigDataRate	OrigDataStartFrame	OrigNumFrames
120.00	120.00	8	36	mm	120.0	981	1307
                Frame#	Time	LPSIS			LASIS			LTH1			LTH2			LTH3			LTH4			LLFE			LMFE			LSH1			LSH2			LSH3			LSH4			LLMAL			LMMAL			LCAL			LMTP5			LTOE			LMTP1			RPSIS			RASIS			RTH1			RTH2			RTH3			RTH4			RLFE			RMFE			RSH1			RSH2			RSH3			RSH4			RLMAL			RMMAL			RCAL			RMTP1			RTOE			RMTP5		
		X1	Y1	Z1	X2	Y2	Z2	X3	Y3	Z3	X4	Y4	Z4	X5	Y5	Z5	X6	Y6	Z6	X7	Y7	Z7	X8	Y8	Z8	X9	Y9	Z9	X10	Y10	Z10	X11	Y11	Z11	X12	Y12	Z12	X13	Y13	Z13	X14	Y14	Z14	X15	Y15	Z15	X16	Y16	Z16	X17	Y17	Z17	X18	Y18	Z18	X19	Y19	Z19	X20	Y20	Z20	X21	Y21	Z21	X22	Y22	Z22	X23	Y23	Z23	X24	Y24	Z24	X25	Y25	Z25	X26	Y26	Z26	X27	Y27	Z27	X28	Y28	Z28	X29	Y29	Z29	X30	Y30	Z30	X31	Y31	Z31	X32	Y32	Z32	X33	Y33	Z33	X34	Y34	Z34	X35	Y35	Z35	X36	Y36	Z36

981	8.16667	0.00000	0.00000	0.00000	-4578.37500	953.85132	429.77377	-4492.53125	592.48499	461.29459	0.00000	0.00000	0.00000	0.00000	0.00000	0.00000	-4546.09814	548.92566	443.01834	-4521.27783	475.84354	435.00726	0.00000	0.00000	0.00000	-4458.87451	385.34030	454.99658	-4462.04004	338.47781	458.08420	-4517.04980	383.07236	441.22980	0.00000	0.00000	0.00000	0.00000	0.00000	0.00000	-4362.49707	-2.05995	321.31665	0.00000	0.00000	0.00000	0.00000	0.00000	0.00000	-4523.35742	572.30029	483.27594	0.00000	0.00000	0.00000	0.00000	0.00000	0.00000	-4554.75537	1000.16187	177.17390	0.00000	0.00000	0.00000	0.00000	0.00000	0.00000	-4608.62939	631.49750	155.07283	-4619.83057	587.83679	153.67024	0.00000	0.00000	0.00000	-4625.04590	473.26782	267.22617	-4594.29443	315.95984	204.06479	0.00000	0.00000	0.00000	0.00000	0.00000	0.00000	0.00000	0.00000	0.00000	-4730.29639	562.06348	187.96571	0.00000	0.00000	0.00000	0.00000	0.00000	0.00000	-4602.61865	122.07687	222.14659	-4626.18213	123.81786	182.36479	0.00000	0.00000	0.00000
982	8.17500	0.00000	0.00000	0.00000	-4585.71826	953.82611	429.32977	-4495.85449	592.75781	461.09946	0.00000	0.00000	0.00000	-4559.35059	594.49811	450.64380	-4551.44434	548.05969	443.42545	-4523.33154	475.66998	435.05557	0.00000	0.00000	0.00000	-4460.46631	385.57089	454.86871	-4463.31299	338.68625	457.98993	-4520.45166	381.77423	441.21503	-4516.61914	340.18265	444.06088	0.00000	0.00000	0.00000	-4362.62988	-1.98610	321.26184	0.00000	0.00000	0.00000	-4396.23828	109.74823	387.03934	0.00000	0.00000	0.00000	0.00000	0.00000	0.00000	0.00000	0.00000	0.00000	-4561.68652	1000.24780	176.85422	-4560.01807	610.09521	143.06850	0.00000	0.00000	0.00000	-4617.09570	632.36755	154.13010	-4628.54785	588.78302	152.55818	0.00000	0.00000	0.00000	-4634.76953	473.91290	265.77954	-4612.07812	315.36966	202.82123	0.00000	0.00000	0.00000	0.00000	0.00000	0.00000	-4545.49170	306.07935	183.34370	0.00000	0.00000	0.00000	0.00000	0.00000	0.00000	-4429.74023	166.39676	226.14206	-4632.28271	120.95313	221.20988	0.00000	0.00000	0.00000	-4601.23779	51.39387	265.33197
983	8.18333	0.00000	0.00000	0.00000	-4593.01074	953.60608	428.87576	-4498.92383	593.16003	463.02240	-4503.47754	550.99609	453.45477	-4562.97705	594.08136	450.63379	-4554.59814	547.48657	443.44785	-4525.62500	475.45474	435.05957	0.00000	0.00000	0.00000	-4462.24902	385.80765	454.77380	-4464.81787	338.90347	457.92392	-4522.19873	381.56635	441.17981	-4518.07129	339.97830	444.02014	0.00000	0.00000	0.00000	-4362.76025	-1.93362	321.21289	0.00000	0.00000	0.00000	0.00000	0.00000	0.00000	-4497.56738	242.99312	176.93828	0.00000	0.00000	0.00000	0.00000	0.00000	0.00000	-4568.81787	1000.26501	176.57607	0.00000	0.00000	0.00000	0.00000	0.00000	0.00000	-4625.19189	632.84589	153.09143	-4636.84473	589.31213	151.36717	0.00000	0.00000	0.00000	-4643.77979	474.00055	264.16422	-4629.49268	314.79645	201.44214	-4605.75879	273.80374	198.42346	0.00000	0.00000	0.00000	0.00000	0.00000	0.00000	0.00000	0.00000	0.00000	0.00000	0.00000	0.00000	0.00000	0.00000	0.00000	-4661.99756	120.49162	220.12733	0.00000	0.00000	0.00000	-4632.19971	50.96662	264.05743
984	8.19167	0.00000	0.00000	0.00000	-4600.31982	953.25098	428.46149	-4502.87500	593.49127	462.95099	-4506.83350	551.06213	453.44058	-4566.79248	593.64484	450.55023	-4557.93262	546.87140	443.40591	-4528.05664	475.15485	434.98474	0.00000	0.00000	0.00000	-4464.13281	385.98248	454.63916	-4466.36523	339.05374	457.81134	-4524.15381	381.21466	441.12067	-4519.69141	339.78403	443.96683	0.00000	0.00000	0.00000	-4362.88086	-1.87391	321.15976	-4374.40527	85.86558	359.98285	-4551.41699	24.84952	429.73755	0.00000	0.00000	0.00000	0.00000	0.00000	0.00000	0.00000	0.00000	0.00000	-4575.66943	999.95703	176.23761	-4576.16162	610.32404	141.09653	0.00000	0.00000	0.00000	-4632.97949	632.89038	152.04228	-4644.73633	589.39569	150.15889	0.00000	0.00000	0.00000	-4652.20117	473.66693	262.58072	-4646.59717	314.24197	199.95204	-4630.46191	269.95047	193.62880	0.00000	0.00000	0.00000	0.00000	0.00000	0.00000	0.00000	0.00000	0.00000	0.00000	0.00000	0.00000	-4756.17627	563.54181	184.22960	0.00000	0.00000	0.00000	-4482.02979	146.16383	224.79366	0.00000	0.00000	0.00000
985	8.20000	0.00000	0.00000	0.00000	-4607.63916	952.75763	428.06552	-4506.82129	593.58112	462.86835	-4510.33203	550.97296	453.26999	-4570.84668	593.21399	450.43665	-4561.49902	546.23120	443.23544	-4530.71045	474.79102	434.86377	0.00000	0.00000	0.00000	-4466.10596	386.07852	454.49344	-4468.04980	339.21921	457.70850	-4526.03369	380.90009	440.97397	-4521.33057	339.48599	443.83539	0.00000	0.00000	0.00000	-4362.99609	-1.83149	321.07806	-4374.46680	85.98699	359.95596	0.00000	0.00000	0.00000	-4763.79736	563.29089	182.88605	0.00000	0.00000	0.00000	0.00000	0.00000	0.00000	-4582.80029	999.60022	175.89029	-4583.54199	609.88080	140.08842	0.00000	0.00000	0.00000	-4640.46094	632.53058	150.98244	-4652.21582	589.04236	148.91959	0.00000	0.00000	0.00000	-4660.03320	472.89337	260.86713	-4663.27979	313.74747	198.38240	-4649.21045	268.57632	193.56076	0.00000	0.00000	0.00000	0.00000	0.00000	0.00000	0.00000	0.00000	0.00000	0.00000	0.00000	0.00000	0.00000	0.00000	0.00000	-4508.65625	136.62546	223.93599	0.00000	0.00000	0.00000	-4505.65771	58.73337	169.61516
986	8.20833	0.00000	0.00000	0.00000	-4614.98975	952.15143	427.71033	-4511.42383	593.37720	460.62073	-4514.22217	550.98566	453.26877	0.00000	0.00000	0.00000	-4565.16748	545.49341	443.04059	-4533.48145	474.31509	434.68036	0.00000	0.00000	0.00000	-4468.18799	386.22791	454.28812	-4469.81055	339.35449	457.57004	-4528.11865	380.60239	440.84671	-4523.08447	339.18112	443.73441	0.00000	0.00000	0.00000	-4363.10986	-1.80568	321.00729	-4374.52539	86.08789	359.91019	-4551.40088	24.56417	429.79349	0.00000	0.00000	0.00000	0.00000	0.00000	0.00000	0.00000	0.00000	0.00000	-4589.95020	999.06104	175.53578	0.00000	0.00000	0.00000	0.00000	0.00000	0.00000	-4647.65723	631.77985	149.94226	-4659.35693	588.29724	147.68912	0.00000	0.00000	0.00000	-4667.35352	471.70215	259.23517	-4679.62891	313.42209	196.76224	-4667.95264	267.49530	192.07542	0.00000	0.00000	0.00000	0.00000	0.00000	0.00000	0.00000	0.00000	0.00000	0.00000	0.00000	0.00000	-4575.03369	592.68463	450.23672	0.00000	0.00000	0.00000	-4488.84424	433.99609	325.82205	0.00000	0.00000	0.00000
987	8.21667	0.00000	0.00000	0.00000	-4622.45752	951.45227	427.39334	-4515.45752	593.54297	462.54141	0.00000	0.00000	0.00000	0.00000	0.00000	0.00000	-4569.06494	544.78516	442.75998	-4536.46045	473.84836	434.50293	0.00000	0.00000	0.00000	-4470.40869	386.35858	454.08429	-4471.63672	339.44193	457.38773	-4530.20361	380.19434	440.68390	-4524.88135	338.84351	443.61411	0.00000	0.00000	0.00000	-4363.25635	-1.76840	320.91663	-4374.58838	86.18624	359.88727	0.00000	0.00000	0.00000	-4579.32617	592.09192	450.00497	0.00000	0.00000	0.00000	0.00000	0.00000	0.00000	-4597.24951	998.37933	175.16180	-4597.59912	608.28949	138.12268	0.00000	0.00000	0.00000	-4654.65137	630.72131	148.93875	-4666.25488	587.19745	146.50237	0.00000	0.00000	0.00000	-4674.25000	470.17694	257.54825	-4695.61475	313.21631	195.13832	-4686.37695	266.73334	190.62567	0.00000	0.00000	0.00000	0.00000	0.00000	0.00000	0.00000	0.00000	0.00000	-4509.38135	164.79727	378.63214	0.00000	0.00000	0.00000	0.00000	0.00000	0.00000	0.00000	0.00000	0.00000	-4777.74609	561.57141	179.99509
988	8.22500	0.00000	0.00000	0.00000	-4631.18115	951.67743	427.08783	-4519.93359	593.29199	462.29309	-4523.64795	549.50281	456.69534	-4581.45801	586.31274	445.91998	-4573.05420	543.99109	442.44705	-4539.53516	473.36200	434.34042	0.00000	0.00000	0.00000	-4472.63867	386.40497	453.83704	-4473.53076	339.53482	457.18085	-4532.47168	379.76819	440.53531	-4526.81396	338.47568	443.48386	0.00000	0.00000	0.00000	-4363.39014	-1.73398	320.83112	-4374.65771	86.24150	359.86511	-4518.25293	-37.88888	371.03824	0.00000	0.00000	0.00000	0.00000	0.00000	0.00000	0.00000	0.00000	0.00000	-4604.66943	997.47748	174.75977	-4604.34229	607.12720	137.16228	0.00000	0.00000	0.00000	-4661.47607	629.38074	147.98476	-4672.94922	585.79175	145.35243	0.00000	0.00000	0.00000	-4680.70361	468.25955	255.94891	-4711.15674	313.31735	193.45808	-4704.49463	266.37381	189.05608	0.00000	0.00000	0.00000	0.00000	0.00000	0.00000	0.00000	0.00000	0.00000	0.00000	0.00000	0.00000	-4784.19531	560.26562	178.68170	0.00000	0.00000	0.00000	-4500.08545	434.26123	324.88409	0.00000	0.00000	0.00000
